<svg width="824" height="383" viewBox="0 0 824 383" fill="none" xmlns="http://www.w3.org/2000/svg">
<path d="M175.716 184.063C198.794 160.21 204.391 139.692 204.537 93.5809C269.901 212.204 245.347 316.68 134.887 383H102.209C6.38425 330.943 -25.1677 277.865 20.8071 132.625C24.2489 182.942 32.548 197.15 54.431 206.994C48.9348 182.783 40.6923 156.429 73.0438 114.032C99.1075 87.2339 120.527 41.2708 83.8517 0C162.449 50.3818 193.149 106.642 175.716 184.063Z" fill="#4BA1DB" fill-opacity="0.5"/>
<path d="M68.2066 222.5C48.9889 203.256 37.9893 192.202 37.8679 155C-16.5641 250.704 10.2219 329.493 102.207 383L102.207 329.5C65.3299 298.256 67.3996 271.958 93.7066 250.5V292H142.207V250.5C169.98 279.633 169.257 302.141 135.207 329.5V383C215.004 341.001 235.492 298.178 197.207 181C194.341 221.595 187.43 233.059 169.207 241C173.784 221.467 180.647 200.205 153.707 166C132.002 144.379 114.165 107.297 144.707 74C79.2552 114.647 53.6893 160.038 68.2066 222.5Z" fill="#4BA1DB"/>
<path d="M135.222 329.298V383H101.763V329.298C64.3739 297.937 67.1959 271.539 93.8685 250V291.657H142.319V250C170.479 279.243 169.745 301.836 135.222 329.298Z" fill="white"/>
<path d="M273.35 274.5H263.5V267.05H292.1V274.5H282.2V302H273.35V274.5ZM294.84 267.05H303.69V280.55H317.39V267.05H326.24V302H317.39V287.9H303.69V302H294.84V267.05ZM343.729 267.05H352.429L366.379 302H357.329L354.529 294.8H341.629L338.829 302H329.729L343.729 267.05ZM352.329 288L348.079 276.25L343.779 288H352.329ZM371.739 274.5H361.889V267.05H390.489V274.5H380.589V302H371.739V274.5ZM391.642 298.9H400.742L395.492 309.45H387.492L391.642 298.9ZM421.256 267.05H446.056V274.5H430.106V281.05H441.756V288H430.106V302H421.256V267.05ZM448.551 267.05H457.401V302H448.551V267.05ZM473.531 284.5L460.931 267.05H471.081L478.631 277.5L486.181 267.05H496.331L483.681 284.5L496.331 302H486.181L478.631 291.55L471.031 302H460.881L473.531 284.5ZM516.813 267.05H541.613V274.5H525.663V281.05H537.313V288H525.663V294.55H541.613V302H516.813V267.05ZM543.889 267.05H553.339L562.239 290.3L571.139 267.05H580.539L566.589 302H557.889L543.889 267.05ZM584.049 267.05H608.849V274.5H592.899V281.05H604.549V288H592.899V294.55H608.849V302H584.049V267.05ZM612.369 267.05H628.069C632.169 267.05 635.369 268.083 637.669 270.15C640.002 272.217 641.169 275.183 641.169 279.05C641.169 281.65 640.602 283.867 639.469 285.7C638.336 287.533 636.736 288.9 634.669 289.8L640.869 302H631.769L626.219 291.05H621.219V302H612.369V267.05ZM626.519 283.6C628.286 283.6 629.652 283.267 630.619 282.6C631.586 281.9 632.069 280.717 632.069 279.05C632.069 277.317 631.586 276.133 630.619 275.5C629.686 274.833 628.319 274.5 626.519 274.5H621.219V283.6H626.519ZM653.322 288.7L640.422 267.05H649.872L657.772 280.6L666.022 267.05H675.422L662.172 288.7V302H653.322V288.7ZM685.752 274.5H675.902V267.05H704.502V274.5H694.602V302H685.752V274.5ZM707.242 267.05H716.092V280.55H729.792V267.05H738.642V302H729.792V287.9H716.092V302H707.242V267.05ZM743.131 267.05H751.981V302H743.131V267.05ZM756.461 267.05H765.211L778.061 287.85V267.05H786.911V302H778.211L765.311 281.15V302H756.461V267.05ZM809.472 302.75C805.672 302.75 802.322 302.017 799.422 300.55C796.555 299.083 794.339 296.983 792.772 294.25C791.205 291.483 790.422 288.25 790.422 284.55C790.422 280.85 791.205 277.633 792.772 274.9C794.339 272.133 796.555 270.017 799.422 268.55C802.322 267.05 805.672 266.3 809.472 266.3C812.005 266.3 814.239 266.55 816.172 267.05C818.139 267.517 819.955 268.283 821.622 269.35V277.75C820.155 276.583 818.489 275.75 816.622 275.25C814.789 274.717 812.672 274.45 810.272 274.45C808.205 274.45 806.355 274.867 804.722 275.7C803.122 276.5 801.855 277.667 800.922 279.2C799.989 280.733 799.522 282.517 799.522 284.55C799.522 287.717 800.439 290.217 802.272 292.05C804.139 293.883 806.655 294.8 809.822 294.8C811.589 294.8 813.072 294.5 814.272 293.9V288.3H808.922V282.1H822.672V299.5C819.105 301.667 814.705 302.75 809.472 302.75Z" fill="#ABABAB"/>
<path d="M267.5 173.1H317.1V188H285.2V201.1H308.5V215H285.2V243H267.5V173.1ZM322.09 173.1H339.79V243H322.09V173.1ZM372.05 208L346.85 173.1H367.15L382.25 194L397.35 173.1H417.65L392.35 208L417.65 243H397.35L382.25 222.1L367.05 243H346.75L372.05 208ZM444.913 216.4L419.113 173.1H438.013L453.813 200.2L470.313 173.1H489.113L462.613 216.4V243H444.913V216.4Z" fill="#ABABAB"/>
</svg>
