<svg width="360" height="120" viewBox="0 0 360 120" fill="none" xmlns="http://www.w3.org/2000/svg">
<path d="M54.7972 57.6699C61.9939 50.1964 63.7393 43.7677 63.7848 29.3204C84.1687 66.487 76.5115 99.2207 42.0647 120H31.8738C1.99095 103.69 -7.84852 87.0594 6.48872 41.5534C7.56204 57.3184 10.1501 61.7703 16.9743 64.8543C15.2603 57.2687 12.6899 49.0117 22.7788 35.7281C30.9067 27.3317 37.5863 12.9308 26.1492 0C50.6596 15.7854 60.2337 33.4127 54.7972 57.6699Z" fill="white" fill-opacity="0.5"/>
<path d="M21.2704 69.7127C15.2774 63.6831 11.8472 60.2199 11.8093 48.5639C-5.16532 78.5495 3.1879 103.235 31.8734 120L31.8734 103.237C20.3733 93.4484 21.0188 85.2087 29.2226 78.4855V91.4881H44.3474V78.4855C53.0086 87.6134 52.7829 94.6656 42.1644 103.237V120C67.0492 106.841 73.4385 93.4238 61.4992 56.7101C60.6054 69.4292 58.4501 73.0208 52.7673 75.509C54.1946 69.389 56.3351 62.7274 47.9337 52.0103C41.1651 45.2362 35.6027 33.6177 45.127 23.1853C24.7159 35.9208 16.7432 50.1423 21.2704 69.7127Z" fill="white"/>
<path d="M42.1689 103.174V120H31.7349V103.174C20.075 93.3484 20.9551 85.0776 29.2729 78.3291V91.3808H44.3823V78.3291C53.1639 87.4914 52.9351 94.5702 42.1689 103.174Z" fill="#4BA1DB"/>
<path d="M90.5206 88.3839H86.9746V85.7019H97.2706V88.3839H93.7066V98.2839H90.5206V88.3839ZM98.2569 85.7019H101.443V90.5619H106.375V85.7019H109.561V98.2839H106.375V93.2079H101.443V98.2839H98.2569V85.7019ZM115.857 85.7019H118.989L124.011 98.2839H120.753L119.745 95.6919H115.101L114.093 98.2839H110.817L115.857 85.7019ZM118.953 93.2439L117.423 89.0139L115.875 93.2439H118.953ZM125.94 88.3839H122.394V85.7019H132.69V88.3839H129.126V98.2839H125.94V88.3839ZM133.106 97.1679H136.382L134.492 100.966H131.612L133.106 97.1679ZM143.767 85.7019H152.695V88.3839H146.953V90.7419H151.147V93.2439H146.953V98.2839H143.767V85.7019ZM153.593 85.7019H156.779V98.2839H153.593V85.7019ZM162.586 91.9839L158.05 85.7019H161.704L164.422 89.4639L167.14 85.7019H170.794L166.24 91.9839L170.794 98.2839H167.14L164.422 94.5219L161.686 98.2839H158.032L162.586 91.9839ZM178.167 85.7019H187.095V88.3839H181.353V90.7419H185.547V93.2439H181.353V95.6019H187.095V98.2839H178.167V85.7019ZM187.914 85.7019H191.316L194.52 94.0719L197.724 85.7019H201.108L196.086 98.2839H192.954L187.914 85.7019ZM202.372 85.7019H211.3V88.3839H205.558V90.7419H209.752V93.2439H205.558V95.6019H211.3V98.2839H202.372V85.7019ZM212.567 85.7019H218.219C219.695 85.7019 220.847 86.0739 221.675 86.8179C222.515 87.5619 222.935 88.6299 222.935 90.0219C222.935 90.9579 222.731 91.7559 222.323 92.4159C221.915 93.0759 221.339 93.5679 220.595 93.8919L222.827 98.2839H219.551L217.553 94.3419H215.753V98.2839H212.567V85.7019ZM217.661 91.6599C218.297 91.6599 218.789 91.5399 219.137 91.2999C219.485 91.0479 219.659 90.6219 219.659 90.0219C219.659 89.3979 219.485 88.9719 219.137 88.7439C218.801 88.5039 218.309 88.3839 217.661 88.3839H215.753V91.6599H217.661ZM227.31 93.4959L222.666 85.7019H226.068L228.912 90.5799L231.882 85.7019H235.266L230.496 93.4959V98.2839H227.31V93.4959ZM238.985 88.3839H235.439V85.7019H245.735V88.3839H242.171V98.2839H238.985V88.3839ZM246.722 85.7019H249.908V90.5619H254.84V85.7019H258.026V98.2839H254.84V93.2079H249.908V98.2839H246.722V85.7019ZM259.642 85.7019H262.828V98.2839H259.642V85.7019ZM264.44 85.7019H267.59L272.216 93.1899V85.7019H275.402V98.2839H272.27L267.626 90.7779V98.2839H264.44V85.7019ZM283.524 98.5539C282.156 98.5539 280.95 98.2899 279.906 97.7619C278.874 97.2339 278.076 96.4779 277.512 95.4939C276.948 94.4979 276.666 93.3339 276.666 92.0019C276.666 90.6699 276.948 89.5119 277.512 88.5279C278.076 87.5319 278.874 86.7699 279.906 86.2419C280.95 85.7019 282.156 85.4319 283.524 85.4319C284.436 85.4319 285.24 85.5219 285.936 85.7019C286.644 85.8699 287.298 86.1459 287.898 86.5299V89.5539C287.37 89.1339 286.77 88.8339 286.098 88.6539C285.438 88.4619 284.676 88.3659 283.812 88.3659C283.068 88.3659 282.402 88.5159 281.814 88.8159C281.238 89.1039 280.782 89.5239 280.446 90.0759C280.11 90.6279 279.942 91.2699 279.942 92.0019C279.942 93.1419 280.272 94.0419 280.932 94.7019C281.604 95.3619 282.51 95.6919 283.65 95.6919C284.286 95.6919 284.82 95.5839 285.252 95.3679V93.3519H283.326V91.1199H288.276V97.3839C286.992 98.1639 285.408 98.5539 283.524 98.5539Z" fill="white"/>
<path d="M88.4146 48.5189H106.271V53.8829H94.7866V58.5989H103.175V63.6029H94.7866V73.6829H88.4146V48.5189ZM108.067 48.5189H114.439V73.6829H108.067V48.5189ZM126.053 61.0829L116.981 48.5189H124.289L129.725 56.0429L135.161 48.5189H142.469L133.361 61.0829L142.469 73.6829H135.161L129.725 66.1589L124.253 73.6829H116.945L126.053 61.0829ZM152.283 64.1069L142.995 48.5189H149.799L155.487 58.2749L161.427 48.5189H168.195L158.655 64.1069V73.6829H152.283V64.1069Z" fill="white"/>
</svg>
